<mxfile host="app.diagrams.net" agent="Mozilla/5.0 (Windows NT 10.0; Win64; x64) AppleWebKit/537.36 (KHTML, like Gecko) Chrome/133.0.0.0 Safari/537.36" version="26.0.16">
  <diagram name="Page-1" id="2sYjcZHijEMdCo4FwVEV">
    <mxGraphModel dx="768" dy="1518" grid="1" gridSize="10" guides="1" tooltips="1" connect="1" arrows="1" fold="1" page="1" pageScale="1" pageWidth="850" pageHeight="1100" math="0" shadow="0">
      <root>
        <mxCell id="0" />
        <mxCell id="1" parent="0" />
        <mxCell id="rlLCuXtaIKeEyEbp-Agc-3" value="" style="edgeStyle=orthogonalEdgeStyle;rounded=0;orthogonalLoop=1;jettySize=auto;html=1;strokeWidth=2;" edge="1" parent="1" source="rlLCuXtaIKeEyEbp-Agc-1" target="rlLCuXtaIKeEyEbp-Agc-2">
          <mxGeometry relative="1" as="geometry" />
        </mxCell>
        <mxCell id="rlLCuXtaIKeEyEbp-Agc-1" value="Inicio" style="ellipse;whiteSpace=wrap;html=1;strokeWidth=2;" vertex="1" parent="1">
          <mxGeometry x="340" y="135" width="112.5" height="50" as="geometry" />
        </mxCell>
        <mxCell id="rlLCuXtaIKeEyEbp-Agc-5" value="" style="edgeStyle=orthogonalEdgeStyle;rounded=0;orthogonalLoop=1;jettySize=auto;html=1;strokeWidth=2;" edge="1" parent="1" source="rlLCuXtaIKeEyEbp-Agc-2">
          <mxGeometry relative="1" as="geometry">
            <mxPoint x="730" y="160" as="targetPoint" />
          </mxGeometry>
        </mxCell>
        <mxCell id="rlLCuXtaIKeEyEbp-Agc-2" value="Valor da passagem&lt;div&gt;Saldo do vale&lt;/div&gt;" style="shape=parallelogram;perimeter=parallelogramPerimeter;whiteSpace=wrap;html=1;fixedSize=1;strokeWidth=2;" vertex="1" parent="1">
          <mxGeometry x="520" y="130" width="160" height="60" as="geometry" />
        </mxCell>
        <mxCell id="rlLCuXtaIKeEyEbp-Agc-8" value="" style="edgeStyle=orthogonalEdgeStyle;rounded=0;orthogonalLoop=1;jettySize=auto;html=1;strokeWidth=2;" edge="1" parent="1" source="rlLCuXtaIKeEyEbp-Agc-6">
          <mxGeometry relative="1" as="geometry">
            <mxPoint x="970" y="280" as="targetPoint" />
          </mxGeometry>
        </mxCell>
        <mxCell id="rlLCuXtaIKeEyEbp-Agc-12" value="" style="edgeStyle=orthogonalEdgeStyle;rounded=0;orthogonalLoop=1;jettySize=auto;html=1;strokeWidth=2;entryX=0.499;entryY=0.822;entryDx=0;entryDy=0;entryPerimeter=0;" edge="1" parent="1" source="rlLCuXtaIKeEyEbp-Agc-6" target="rlLCuXtaIKeEyEbp-Agc-11">
          <mxGeometry relative="1" as="geometry" />
        </mxCell>
        <mxCell id="rlLCuXtaIKeEyEbp-Agc-6" value="Valor da passagem&amp;gt;Saldo do vale?" style="rhombus;whiteSpace=wrap;html=1;strokeWidth=2;" vertex="1" parent="1">
          <mxGeometry x="910" y="100" width="120" height="120" as="geometry" />
        </mxCell>
        <mxCell id="rlLCuXtaIKeEyEbp-Agc-19" style="edgeStyle=orthogonalEdgeStyle;rounded=0;orthogonalLoop=1;jettySize=auto;html=1;exitX=1;exitY=0.25;exitDx=0;exitDy=0;entryX=0.5;entryY=1;entryDx=0;entryDy=0;strokeWidth=2;" edge="1" parent="1" source="rlLCuXtaIKeEyEbp-Agc-9" target="rlLCuXtaIKeEyEbp-Agc-17">
          <mxGeometry relative="1" as="geometry" />
        </mxCell>
        <mxCell id="rlLCuXtaIKeEyEbp-Agc-9" value="Mostra &quot;saldo insuficiente&quot;" style="shape=document;whiteSpace=wrap;html=1;boundedLbl=1;strokeWidth=2;" vertex="1" parent="1">
          <mxGeometry x="910" y="280" width="120" height="80" as="geometry" />
        </mxCell>
        <mxCell id="rlLCuXtaIKeEyEbp-Agc-10" value="Sim" style="text;html=1;align=center;verticalAlign=middle;resizable=0;points=[];autosize=1;strokeColor=none;fillColor=none;" vertex="1" parent="1">
          <mxGeometry x="970" y="218" width="40" height="30" as="geometry" />
        </mxCell>
        <mxCell id="rlLCuXtaIKeEyEbp-Agc-18" style="edgeStyle=orthogonalEdgeStyle;rounded=0;orthogonalLoop=1;jettySize=auto;html=1;exitX=1;exitY=0.5;exitDx=0;exitDy=0;entryX=0.5;entryY=0;entryDx=0;entryDy=0;strokeWidth=2;" edge="1" parent="1" source="rlLCuXtaIKeEyEbp-Agc-11" target="rlLCuXtaIKeEyEbp-Agc-17">
          <mxGeometry relative="1" as="geometry" />
        </mxCell>
        <mxCell id="rlLCuXtaIKeEyEbp-Agc-11" value="Compra a passagem" style="shape=document;whiteSpace=wrap;html=1;boundedLbl=1;strokeWidth=2;" vertex="1" parent="1">
          <mxGeometry x="910" y="-30" width="120" height="80" as="geometry" />
        </mxCell>
        <mxCell id="rlLCuXtaIKeEyEbp-Agc-13" value="NÃ£o" style="text;html=1;align=center;verticalAlign=middle;resizable=0;points=[];autosize=1;strokeColor=none;fillColor=none;" vertex="1" parent="1">
          <mxGeometry x="965" y="68" width="50" height="30" as="geometry" />
        </mxCell>
        <mxCell id="rlLCuXtaIKeEyEbp-Agc-16" value="" style="edgeStyle=orthogonalEdgeStyle;rounded=0;orthogonalLoop=1;jettySize=auto;html=1;strokeWidth=2;" edge="1" parent="1" source="rlLCuXtaIKeEyEbp-Agc-15" target="rlLCuXtaIKeEyEbp-Agc-6">
          <mxGeometry relative="1" as="geometry" />
        </mxCell>
        <mxCell id="rlLCuXtaIKeEyEbp-Agc-15" value="Processa os valores" style="rounded=0;whiteSpace=wrap;html=1;strokeWidth=2;" vertex="1" parent="1">
          <mxGeometry x="730" y="125" width="130" height="70" as="geometry" />
        </mxCell>
        <mxCell id="rlLCuXtaIKeEyEbp-Agc-17" value="Fim" style="ellipse;whiteSpace=wrap;html=1;strokeWidth=2;" vertex="1" parent="1">
          <mxGeometry x="1120" y="110" width="120" height="80" as="geometry" />
        </mxCell>
      </root>
    </mxGraphModel>
  </diagram>
</mxfile>
